<svg class="svg-icon" style="width: 1em; height: 1em;vertical-align: middle;fill: currentColor;overflow: hidden;" viewBox="0 0 1024 1024" version="1.1" xmlns="http://www.w3.org/2000/svg"><path d="M383.706591 991.446838a31.963123 31.963123 0 1 1-63.926246 0V32.553162a31.963123 31.963123 0 0 1 63.926246 0v958.893676z" fill="#333333" /><path d="M376.291146 970.99044a31.963123 31.963123 0 1 1-49.095356 40.912797L6.925302 627.706504a31.963123 31.963123 0 0 1 49.095356-40.912797l320.270488 384.196733z" fill="#333333" /><path d="M639.411571 32.553162a31.963123 31.963123 0 1 1 63.926245 0v958.893676a31.963123 31.963123 0 0 1-63.926245 0V32.553162z" fill="#333333" /><path d="M646.827015 53.00956a31.963123 31.963123 0 1 1 49.095357-40.912797l320.270488 384.196733a31.963123 31.963123 0 0 1-49.095357 40.912797L646.827015 53.00956z" fill="#333333" /></svg>