<svg class="svg-icon" style="width: 1em; height: 1em;vertical-align: middle;fill: currentColor;overflow: hidden;" viewBox="0 0 1024 1024" version="1.1" xmlns="http://www.w3.org/2000/svg"><path d="M780.8 981.333333H170.666667c-72.533333 0-128-55.466667-128-128v-298.666666c0-72.533333 55.466667-128 128-128h102.4l157.866666-358.4c4.266667-17.066667 21.333333-25.6 38.4-25.6 93.866667 0 170.666667 76.8 170.666667 170.666666v128h221.866667c34.133333 4.266667 64 21.333333 85.333333 51.2 21.333333 25.6 29.866667 59.733333 21.333333 93.866667l-59.733333 384c-12.8 64-64 110.933333-128 110.933333zM341.333333 896h439.466667c21.333333 0 38.4-17.066667 42.666667-34.133333l59.733333-384c0-12.8 0-21.333333-8.533333-29.866667-8.533333-8.533333-17.066667-17.066667-29.866667-17.066667H597.333333c-25.6 0-42.666667-17.066667-42.666666-42.666666V213.333333c0-38.4-25.6-68.266667-59.733334-81.066666L341.333333 477.866667V896z m-170.666666-384c-25.6 0-42.666667 17.066667-42.666667 42.666667v298.666666c0 25.6 17.066667 42.666667 42.666667 42.666667h85.333333v-384H170.666667z"  /></svg>