<svg class="svg-icon" style="width: 1em; height: 1em;vertical-align: middle;fill: currentColor;overflow: hidden;" viewBox="0 0 1024 1024" version="1.1" xmlns="http://www.w3.org/2000/svg"><path d="M554.666667 981.333333c-93.866667 0-170.666667-76.8-170.666667-170.666666v-128H162.133333c-68.266667-8.533333-119.466667-76.8-106.666666-145.066667l59.733333-384C128 89.6 179.2 42.666667 243.2 42.666667h597.333333c68.266667 0 128 51.2 140.8 123.733333V473.6c-8.533333 72.533333-72.533333 123.733333-140.8 123.733333h-85.333333L597.333333 955.733333c-8.533333 17.066667-25.6 25.6-42.666666 25.6z m-128-384c25.6 0 42.666667 17.066667 42.666666 42.666667v170.666667c0 38.4 25.6 68.266667 59.733334 81.066666l153.6-345.6V128H243.2c-21.333333 0-38.4 17.066667-42.666667 38.4l-59.733333 384c-4.266667 21.333333 12.8 46.933333 34.133333 46.933333H426.666667z m341.333333-85.333333h72.533333c29.866667 0 51.2-17.066667 55.466667-46.933333V174.933333c-4.266667-25.6-29.866667-46.933333-55.466667-46.933333H768v384z"  /></svg>