<svg width="31" height="30" viewBox="0 0 31 30" fill="none" xmlns="http://www.w3.org/2000/svg">
<path d="M18.6607 6.46382H12.2321C11.4744 6.46382 10.7477 6.76484 10.2118 7.30065C9.67602 7.83647 9.375 8.5632 9.375 9.32096V22.1781C9.375 22.9359 9.67602 23.6626 10.2118 24.1984C10.7477 24.7342 11.4744 25.0352 12.2321 25.0352H26.5179C27.2756 25.0352 28.0023 24.7342 28.5382 24.1984C29.074 23.6626 29.375 22.9359 29.375 22.1781V15.7495" stroke="black" stroke-linecap="round" stroke-linejoin="round"/>
<path d="M26.5178 7.89239L27.8792 9.32096M29.3749 4.9881C29.7565 5.38154 29.9678 5.90934 29.9633 6.45737C29.9587 7.0054 29.7387 7.52961 29.3507 7.91667L19.3749 17.8924L15.0892 19.321L16.5178 15.0352L26.4992 4.96953C26.8503 4.61622 27.3198 4.4055 27.8171 4.37806C28.3144 4.35062 28.8043 4.50841 29.1921 4.82096L29.3749 4.9881Z" stroke="black" stroke-linecap="round" stroke-linejoin="round"/>
</svg>
